<svg xmlns="http://www.w3.org/2000/svg" viewBox="0 0 1300 400"><g fill="none" stroke-width="2"><path stroke="#80ada1" d="M1124 108.23V96.25q0-.5-.5-.5h-60.75a.5.5 0 0 0-.5.5v215a.5.5 0 0 0 .5.5h60.73a.74.74 0 0 0 .74-.74q.06-73.58.02-147.38c-.01-11.16 7.37-19.2 18.38-20.22 7-.65 12.79 2.61 15.45 8.97q1.42 3.4 1.42 12.94.02 73.06.01 145.92a.51.51 0 0 0 .51.51h61.24a.75.74 0 0 0 .75-.74q.01-88.3-.01-176.83 0-8.32-.96-12.67c-4-18.08-17.87-30.8-36.24-33.01-20.06-2.43-44.34 8.07-60.17 20.04a.39.39 0 0 1-.62-.31" vector-effect="non-scaling-stroke"/><path stroke="#f0858c" d="M67.04 182.43c-14.67 40.05-18.31 84.82-20.56 126.77q-.03.55.52.55h55.74q.52 0 .51-.51c-.12-30.71 1.78-60.89 7.89-91.57q7.49-37.56 36.3-61.58c1.86-1.54 4.55-2.88 6.76-4.44a1.23 1.08 74.4 0 0 .46-.96l-.14-55.61a.32.32 0 0 0-.45-.29c-38.74 17.32-72.29 47.41-87.03 87.64" vector-effect="non-scaling-stroke"/><path stroke="#faba91" d="m9.55 146.84 65.92.13q.53 0 .88-.4c1.65-1.9 3.06-4.47 4.48-6.1 16.42-18.99 34.54-32.37 56.04-45.02q.78-.45-.12-.45H9.5a.5.5 0 0 0-.5.5v50.8q0 .54.55.54" vector-effect="non-scaling-stroke"/><path stroke="#80ada1" d="M422.46 185.37a.46.46 0 0 1-.46-.46v-40.7a.46.46 0 0 1 .46-.46h48.83a.46.46 0 0 0 .46-.46V96.21a.46.46 0 0 0-.46-.46H358.9a.46.46 0 0 0-.46.46l.38 215.08a.46.46 0 0 0 .46.46h112.01a.46.46 0 0 0 .46-.46v-44.58a.46.46 0 0 0-.46-.46h-48.83a.46.46 0 0 1-.46-.46v-38.58a.46.46 0 0 1 .46-.46h48.83a.46.46 0 0 0 .46-.46v-40.33a.46.46 0 0 0-.46-.46l-48.83-.13M558.69 266.25a.42.42 0 0 1-.42-.42l-.35-169.66a.42.42 0 0 0-.42-.42h-62.33a.42.42 0 0 0-.42.42v215.16a.42.42 0 0 0 .42.42h113.41a.42.42 0 0 0 .42-.42v-44.66a.42.42 0 0 0-.42-.42h-49.89M688.13 185.5a.38.38 0 0 1-.38-.38V144.2a.38.38 0 0 1 .38-.38l48.99-.25a.38.38 0 0 0 .38-.38V96.13a.38.38 0 0 0-.38-.38H624.57a.38.38 0 0 0-.38.38l.38 215.17a.38.38 0 0 0 .38.38l112.17.1a.38.38 0 0 0 .38-.38v-44.77a.38.38 0 0 0-.38-.38h-48.99a.38.38 0 0 1-.38-.38v-38.7a.38.38 0 0 1 .38-.38l48.99-.14a.38.38 0 0 0 .38-.38v-40.44a.38.38 0 0 0-.38-.38l-48.99.05M857.56 95.75a.31.31 0 0 0-.31.25l-25.18 137.33a.31.31 0 0 1-.61-.01L807.47 96.01a.31.31 0 0 0-.3-.26h-55.75a.31.31 0 0 0-.3.36l33.35 215.38a.31.31 0 0 0 .31.26h80.62a.31.31 0 0 0 .31-.25l40.52-215.38a.31.31 0 0 0-.3-.37h-48.37M983.67 185.59a.41.41 0 0 1-.41-.41l-.03-40.95a.41.41 0 0 1 .41-.41l48.82-.24a.41.41 0 0 0 .41-.41l-.17-47.01a.41.41 0 0 0-.41-.41H920.08a.41.41 0 0 0-.41.41l.35 215.18a.41.41 0 0 0 .41.41h111.88a.41.41 0 0 0 .41-.41l.2-44.68a.41.41 0 0 0-.41-.41h-48.78a.41.41 0 0 1-.41-.41l-.24-38.68a.41.41 0 0 1 .41-.41h48.91a.41.41 0 0 0 .41-.41l-.09-40.69a.41.41 0 0 0-.41-.41l-48.64.35M316.74 175.05a.55.55 0 0 0-.55-.55H208.55a.55.55 0 0 0-.55.55v47.9a.55.55 0 0 0 .55.55h107.64a.55.55 0 0 0 .55-.55v-47.9M1290.98 284.2a27.35 27.35 0 0 0-27.35-27.35 27.35 27.35 0 0 0-27.35 27.35 27.35 27.35 0 0 0 27.35 27.35 27.35 27.35 0 0 0 27.35-27.35" vector-effect="non-scaling-stroke"/><path stroke="#80ada1" d="M1285.56 284.19a21.92 21.92 0 0 0-21.92-21.92 21.92 21.92 0 0 0-21.92 21.92 21.92 21.92 0 0 0 21.92 21.92 21.92 21.92 0 0 0 21.92-21.92" vector-effect="non-scaling-stroke"/><path stroke="#80ada1" d="M1268.73 284.17q6.09-.72 6.77-6.39c.8-6.67-3.85-8.36-9.64-8.55q-6.24-.21-12.57-.11-.6.01-.6.62l.26 26.88q.01.67.67.72l2.39.2q.59.05.59-.55l-.14-11.19q-.01-.58.56-.66c3.38-.47 7.39-.66 9.38 2.2q3.35 4.83 6.55 9.78a.83.83 0 0 0 .67.37l3.35.02q.63 0 .35-.57-3.38-6.84-8.79-12.2-.49-.49.2-.57" vector-effect="non-scaling-stroke"/><path stroke="#80ada1" d="m1256.73 272.54.04 8.82a.29.29 0 0 0 .29.29l8.64-.04a6.05 4.58-.2 0 0 6.03-4.6v-.24a6.05 4.58-.2 0 0-6.07-4.55l-8.64.03a.29.29 0 0 0-.29.29" vector-effect="non-scaling-stroke"/></g><path fill="#fff" d="M0 0h1300v400H0V0Zm1124 108.23V96.25q0-.5-.5-.5h-60.75a.5.5 0 0 0-.5.5v215a.5.5 0 0 0 .5.5h60.73a.74.74 0 0 0 .74-.74q.06-73.58.02-147.38c-.01-11.16 7.37-19.2 18.38-20.22 7-.65 12.79 2.61 15.45 8.97q1.42 3.4 1.42 12.94.02 73.06.01 145.92a.51.51 0 0 0 .51.51h61.24a.75.74 0 0 0 .75-.74q.01-88.3-.01-176.83 0-8.32-.96-12.67c-4-18.08-17.87-30.8-36.24-33.01-20.06-2.43-44.34 8.07-60.17 20.04a.39.39 0 0 1-.62-.31ZM67.04 182.43c-14.67 40.05-18.31 84.82-20.56 126.77q-.03.55.52.55h55.74q.52 0 .51-.51c-.12-30.71 1.78-60.89 7.89-91.57q7.49-37.56 36.3-61.58c1.86-1.54 4.55-2.88 6.76-4.44a1.23 1.08 74.4 0 0 .46-.96l-.14-55.61a.32.32 0 0 0-.45-.29c-38.74 17.32-72.29 47.41-87.03 87.64ZM9.55 146.84l65.92.13q.53 0 .88-.4c1.65-1.9 3.06-4.47 4.48-6.1 16.42-18.99 34.54-32.37 56.04-45.02q.78-.45-.12-.45H9.5a.5.5 0 0 0-.5.5v50.8q0 .54.55.54Zm412.91 38.53a.46.46 0 0 1-.46-.46v-40.7a.46.46 0 0 1 .46-.46h48.83a.46.46 0 0 0 .46-.46V96.21a.46.46 0 0 0-.46-.46H358.9a.46.46 0 0 0-.46.46l.38 215.08a.46.46 0 0 0 .46.46h112.01a.46.46 0 0 0 .46-.46v-44.58a.46.46 0 0 0-.46-.46h-48.83a.46.46 0 0 1-.46-.46v-38.58a.46.46 0 0 1 .46-.46h48.83a.46.46 0 0 0 .46-.46v-40.33a.46.46 0 0 0-.46-.46l-48.83-.13Zm136.23 80.88a.42.42 0 0 1-.42-.42l-.35-169.66a.42.42 0 0 0-.42-.42h-62.33a.42.42 0 0 0-.42.42v215.16a.42.42 0 0 0 .42.42h113.41a.42.42 0 0 0 .42-.42v-44.66a.42.42 0 0 0-.42-.42h-49.89Zm129.44-80.75a.38.38 0 0 1-.38-.38V144.2a.38.38 0 0 1 .38-.38l48.99-.25a.38.38 0 0 0 .38-.38V96.13a.38.38 0 0 0-.38-.38H624.57a.38.38 0 0 0-.38.38l.38 215.17a.38.38 0 0 0 .38.38l112.17.1a.38.38 0 0 0 .38-.38v-44.77a.38.38 0 0 0-.38-.38h-48.99a.38.38 0 0 1-.38-.38v-38.7a.38.38 0 0 1 .38-.38l48.99-.14a.38.38 0 0 0 .38-.38v-40.44a.38.38 0 0 0-.38-.38l-48.99.05Zm169.43-89.75a.31.31 0 0 0-.31.25l-25.18 137.33a.31.31 0 0 1-.61-.01L807.47 96.01a.31.31 0 0 0-.3-.26h-55.75a.31.31 0 0 0-.3.36l33.35 215.38a.31.31 0 0 0 .31.26h80.62a.31.31 0 0 0 .31-.25l40.52-215.38a.31.31 0 0 0-.3-.37h-48.37Zm126.11 89.84a.41.41 0 0 1-.41-.41l-.03-40.95a.41.41 0 0 1 .41-.41l48.82-.24a.41.41 0 0 0 .41-.41l-.17-47.01a.41.41 0 0 0-.41-.41H920.08a.41.41 0 0 0-.41.41l.35 215.18a.41.41 0 0 0 .41.41h111.88a.41.41 0 0 0 .41-.41l.2-44.68a.41.41 0 0 0-.41-.41h-48.78a.41.41 0 0 1-.41-.41l-.24-38.68a.41.41 0 0 1 .41-.41h48.91a.41.41 0 0 0 .41-.41l-.09-40.69a.41.41 0 0 0-.41-.41l-48.64.35Zm-666.93-10.54a.55.55 0 0 0-.55-.55H208.55a.55.55 0 0 0-.55.55v47.9a.55.55 0 0 0 .55.55h107.64a.55.55 0 0 0 .55-.55v-47.9Zm974.24 109.15a27.35 27.35 0 0 0-27.35-27.35 27.35 27.35 0 0 0-27.35 27.35 27.35 27.35 0 0 0 27.35 27.35 27.35 27.35 0 0 0 27.35-27.35Z"/><path fill="#015b43" d="M1124 108.23a.39.39 0 0 0 .62.31c15.83-11.97 40.11-22.47 60.17-20.04 18.37 2.21 32.24 14.93 36.24 33.01q.96 4.35.96 12.67.02 88.53.01 176.83a.75.74 0 0 1-.75.74h-61.24a.51.51 0 0 1-.51-.51q.01-72.86-.01-145.92 0-9.54-1.42-12.94c-2.66-6.36-8.45-9.62-15.45-8.97-11.01 1.02-18.39 9.06-18.38 20.22q.04 73.8-.02 147.38a.74.74 0 0 1-.74.74h-60.73a.5.5 0 0 1-.5-.5v-215a.5.5 0 0 1 .5-.5h60.75q.5 0 .5.5v11.98Z"/><path fill="#e00b18" d="M67.04 182.43c14.74-40.23 48.29-70.32 87.03-87.64a.32.32 0 0 1 .45.29l.14 55.61a1.23 1.08 74.4 0 1-.46.96c-2.21 1.56-4.9 2.9-6.76 4.44q-28.81 24.02-36.3 61.58c-6.11 30.68-8.01 60.86-7.89 91.57q.01.51-.51.51H47q-.55 0-.52-.55c2.25-41.95 5.89-86.72 20.56-126.77Z"/><path fill="#f57422" d="m75.47 146.97-65.92-.13q-.55 0-.55-.54V95.5a.5.5 0 0 1 .5-.5h127.25q.9 0 .12.45c-21.5 12.65-39.62 26.03-56.04 45.02-1.42 1.63-2.83 4.2-4.48 6.1q-.35.4-.88.4Z"/><path fill="#015b43" d="m422.46 185.37 48.83.13a.46.46 0 0 1 .46.46v40.33a.46.46 0 0 1-.46.46h-48.83a.46.46 0 0 0-.46.46v38.58a.46.46 0 0 0 .46.46h48.83a.46.46 0 0 1 .46.46v44.58a.46.46 0 0 1-.46.46H359.28a.46.46 0 0 1-.46-.46l-.38-215.08a.46.46 0 0 1 .46-.46h112.39a.46.46 0 0 1 .46.46v47.08a.46.46 0 0 1-.46.46h-48.83a.46.46 0 0 0-.46.46v40.7a.46.46 0 0 0 .46.46ZM558.69 266.25h49.89a.42.42 0 0 1 .42.42v44.66a.42.42 0 0 1-.42.42H495.17a.42.42 0 0 1-.42-.42V96.17a.42.42 0 0 1 .42-.42h62.33a.42.42 0 0 1 .42.42l.35 169.66a.42.42 0 0 0 .42.42ZM688.13 185.5l48.99-.05a.38.38 0 0 1 .38.38v40.44a.38.38 0 0 1-.38.38l-48.99.14a.38.38 0 0 0-.38.38v38.7a.38.38 0 0 0 .38.38h48.99a.38.38 0 0 1 .38.38v44.77a.38.38 0 0 1-.38.38l-112.17-.1a.38.38 0 0 1-.38-.38l-.38-215.17a.38.38 0 0 1 .38-.38h112.55a.38.38 0 0 1 .38.38v47.06a.38.38 0 0 1-.38.38l-48.99.25a.38.38 0 0 0-.38.38v40.92a.38.38 0 0 0 .38.38ZM857.56 95.75h48.37a.31.31 0 0 1 .3.37L865.71 311.5a.31.31 0 0 1-.31.25h-80.62a.31.31 0 0 1-.31-.26L751.12 96.11a.31.31 0 0 1 .3-.36h55.75a.31.31 0 0 1 .3.26l23.99 137.31a.31.31 0 0 0 .61.01L857.25 96a.31.31 0 0 1 .31-.25ZM983.67 185.59l48.64-.35a.41.41 0 0 1 .41.41l.09 40.69a.41.41 0 0 1-.41.41h-48.91a.41.41 0 0 0-.41.41l.24 38.68a.41.41 0 0 0 .41.41h48.78a.41.41 0 0 1 .41.41l-.2 44.68a.41.41 0 0 1-.41.41H920.43a.41.41 0 0 1-.41-.41l-.35-215.18a.41.41 0 0 1 .41-.41h112.21a.41.41 0 0 1 .41.41l.17 47.01a.41.41 0 0 1-.41.41l-48.82.24a.41.41 0 0 0-.41.41l.03 40.95a.41.41 0 0 0 .41.41Z"/><rect width="108.74" height="49" x="208" y="174.5" fill="#015b43" rx=".55"/><path fill="#015b43" d="M1290.98 284.2a27.35 27.35 0 0 1-27.35 27.35 27.35 27.35 0 0 1-27.35-27.35 27.35 27.35 0 0 1 27.35-27.35 27.35 27.35 0 0 1 27.35 27.35Zm-5.42-.01a21.92 21.92 0 0 0-21.92-21.92 21.92 21.92 0 0 0-21.92 21.92 21.92 21.92 0 0 0 21.92 21.92 21.92 21.92 0 0 0 21.92-21.92Z"/><path fill="#fff" d="M1285.56 284.19a21.92 21.92 0 0 1-21.92 21.92 21.92 21.92 0 0 1-21.92-21.92 21.92 21.92 0 0 1 21.92-21.92 21.92 21.92 0 0 1 21.92 21.92Zm-16.83-.02q6.09-.72 6.77-6.39c.8-6.67-3.85-8.36-9.64-8.55q-6.24-.21-12.57-.11-.6.01-.6.62l.26 26.88q.01.67.67.72l2.39.2q.59.05.59-.55l-.14-11.19q-.01-.58.56-.66c3.38-.47 7.39-.66 9.38 2.2q3.35 4.83 6.55 9.78a.83.83 0 0 0 .67.37l3.35.02q.63 0 .35-.57-3.38-6.84-8.79-12.2-.49-.49.2-.57Z"/><path fill="#015b43" d="M1268.53 284.74q5.41 5.36 8.79 12.2.28.57-.35.57l-3.35-.02a.83.83 0 0 1-.67-.37q-3.2-4.95-6.55-9.78c-1.99-2.86-6-2.67-9.38-2.2q-.57.08-.56.66l.14 11.19q0 .6-.59.55l-2.39-.2q-.66-.05-.67-.72l-.26-26.88q0-.61.6-.62 6.33-.1 12.57.11c5.79.19 10.44 1.88 9.64 8.55q-.68 5.67-6.77 6.39-.69.08-.2.57Zm-11.8-12.2.04 8.82a.29.29 0 0 0 .29.29l8.64-.04a6.05 4.58-.2 0 0 6.03-4.6v-.24a6.05 4.58-.2 0 0-6.07-4.55l-8.64.03a.29.29 0 0 0-.29.29Z"/><path fill="#fff" d="M1256.73 272.54a.29.29 0 0 1 .29-.29l8.64-.03a6.05 4.58-.2 0 1 6.07 4.55v.24a6.05 4.58-.2 0 1-6.03 4.6l-8.64.04a.29.29 0 0 1-.29-.29l-.04-8.82Z"/></svg>